<svg width="12" height="20" viewBox="0 0 12 20" fill="none" xmlns="http://www.w3.org/2000/svg">
<path d="M6 0.0887451C6.44183 0.0887451 6.8 0.446917 6.8 0.888745V17.1744L10.4745 13.4849C10.7863 13.1719 11.2929 13.1708 11.6059 13.4826C11.919 13.7944 11.92 14.3009 11.6082 14.614L6.56683 19.6758C6.41671 19.8265 6.21274 19.9113 6 19.9113C5.78727 19.9113 5.5833 19.8265 5.43317 19.6758L0.391802 14.614C0.080015 14.3009 0.0810397 13.7944 0.39409 13.4826C0.707141 13.1708 1.21367 13.1719 1.52546 13.4849L5.2 17.1744V0.888745C5.2 0.446917 5.55818 0.0887451 6 0.0887451Z" fill="black"/>
</svg>
