<svg width="12" height="20" viewBox="0 0 12 20" fill="currentColor" xmlns="http://www.w3.org/2000/svg">
<path d="M6 19.9113C5.55817 19.9113 5.2 19.5531 5.2 19.1113L5.2 2.82565L1.52546 6.5151C1.21367 6.82815 0.707141 6.82917 0.39409 6.51738C0.08104 6.2056 0.0800148 5.69907 0.391802 5.38601L5.43317 0.324205C5.5833 0.173475 5.78727 0.0887451 6 0.0887451C6.21274 0.0887451 6.41671 0.173475 6.56683 0.324205L11.6082 5.38602C11.92 5.69907 11.919 6.2056 11.6059 6.51738C11.2929 6.82917 10.7863 6.82815 10.4745 6.5151L6.8 2.82565L6.8 19.1113C6.8 19.5531 6.44183 19.9113 6 19.9113Z" fill="black"/>
</svg>
