<svg width="20" height="20" viewBox="0 0 20 20" fill="currentColor" xmlns="http://www.w3.org/2000/svg">
<path d="M19.7636 1.36584C20.0761 1.05342 20.0761 0.546887 19.7636 0.234467C19.4512 -0.0779523 18.9447 -0.0779523 18.6323 0.234467L10 8.86671L1.3678 0.234467C1.05538 -0.0779523 0.54885 -0.0779523 0.236431 0.234467C-0.0759886 0.546887 -0.0759886 1.05342 0.236431 1.36584L8.86867 9.99808L0.234955 18.6318C-0.0774642 18.9442 -0.0774637 19.4508 0.234956 19.7632C0.547375 20.0756 1.05391 20.0756 1.36633 19.7632L10 11.1295L18.6337 19.7632C18.9462 20.0756 19.4527 20.0756 19.7651 19.7632C20.0775 19.4508 20.0775 18.9442 19.7651 18.6318L11.1314 9.99808L19.7636 1.36584Z" fill="black"/>
</svg>
