<svg width="18" height="20" viewBox="0 0 18 20" fill="none" xmlns="http://www.w3.org/2000/svg">
<path fill-rule="evenodd" clip-rule="evenodd" d="M7.94866 0.00106842H10.0518C10.5067 0.00106044 10.8878 0.00105364 11.201 0.0223651C11.5275 0.0445784 11.838 0.0925814 12.1399 0.217277C12.8379 0.505608 13.3929 1.05892 13.6825 1.75612C13.8078 2.05783 13.8561 2.36823 13.8784 2.6942C13.8863 2.80932 13.8913 2.93362 13.8944 3.06738H17.1994C17.6412 3.06738 17.9994 3.42555 17.9994 3.86738C17.9994 4.30921 17.6412 4.66738 17.1994 4.66738H15.9496V15.9633C15.9496 16.5069 15.9496 16.963 15.9191 17.3361C15.8872 17.7265 15.8179 18.0963 15.6388 18.4468C15.3651 18.9826 14.9283 19.4171 14.3926 19.6893C14.0421 19.8674 13.6723 19.9365 13.2813 19.9684C12.9068 19.999 12.4487 19.999 11.902 19.9989H6.09898C5.55217 19.999 5.09395 19.999 4.71925 19.9684C4.3281 19.9366 3.95809 19.8675 3.60743 19.6893C3.07127 19.4169 2.63533 18.982 2.36187 18.4468C2.18284 18.0964 2.11345 17.7267 2.08146 17.3362C2.05084 16.9624 2.05085 16.5054 2.05086 15.9605L2.05086 4.66738H0.801068C0.35924 4.66738 0.00106812 4.30921 0.00106812 3.86738C0.00106812 3.42555 0.35924 3.06738 0.801068 3.06738H4.10604C4.10918 2.93365 4.11415 2.80937 4.12203 2.69427C4.14432 2.36832 4.19254 2.05789 4.31788 1.75612C4.60741 1.05904 5.16222 0.505654 5.86033 0.217277C6.16222 0.0925692 6.47288 0.0445741 6.79936 0.0223643C7.11262 0.00105364 7.49382 0.00106044 7.94866 0.00106842ZM5.70648 3.06738H12.294C12.2914 2.97017 12.2876 2.88316 12.2821 2.80355C12.2654 2.55936 12.2356 2.44379 12.2049 2.36984C12.0784 2.06525 11.8355 1.82269 11.529 1.69607C11.4542 1.66516 11.3376 1.63536 11.0924 1.61867C10.84 1.6015 10.5136 1.60107 10.0251 1.60107H7.97535C7.48689 1.60107 7.16043 1.6015 6.90795 1.61867C6.66259 1.63537 6.546 1.66517 6.4712 1.69607C6.16479 1.82265 5.92205 2.06514 5.79549 2.36984C5.7648 2.44373 5.735 2.55926 5.71829 2.80348C5.71285 2.88311 5.70908 2.97014 5.70648 3.06738ZM3.65086 4.66738V15.9282C3.65086 16.5139 3.65149 16.9049 3.67612 17.2055C3.69998 17.4968 3.7423 17.632 3.78668 17.7189C3.90626 17.9529 4.09703 18.1434 4.33225 18.2629C4.42007 18.3075 4.55651 18.3499 4.84918 18.3737C5.15108 18.3983 5.54359 18.3989 6.13073 18.3989H11.8702C12.4573 18.3989 12.8496 18.3983 13.1512 18.3737C13.4436 18.3499 13.5799 18.3076 13.6678 18.2629C13.9036 18.1431 14.0947 17.9524 14.214 17.7189C14.2584 17.6321 14.3006 17.497 14.3245 17.2057C14.3491 16.905 14.3496 16.514 14.3496 15.9282V4.66738H3.65086Z" fill="black"/>
</svg>
