<svg width="20" height="20" viewBox="0 0 20 20" fill="none" xmlns="http://www.w3.org/2000/svg">
<path fill-rule="evenodd" clip-rule="evenodd" d="M16.1298 0.00537109C16.3419 0.00537109 16.5454 0.0896593 16.6954 0.239693L19.7603 3.30464C20.0727 3.61706 20.0727 4.12358 19.7603 4.436L10.5657 13.6309C10.4157 13.7809 10.2122 13.8652 10 13.8652H6.93513C6.4933 13.8652 6.13513 13.507 6.13513 13.0652V10.0002C6.13513 9.78806 6.21941 9.58458 6.36943 9.43455L12.4988 3.30498L15.5641 0.239693C15.7141 0.0896593 15.9176 0.00537109 16.1298 0.00537109ZM13.0649 5.00171L7.73513 10.3316V12.2652H9.66863L14.9984 6.93527L13.0649 5.00171ZM16.1298 5.80389L14.1962 3.87032L16.1298 1.93676L18.0633 3.87032L16.1298 5.80389Z" fill="black"/>
<path d="M4.04255 2.04867L6.93532 2.04867C7.37715 2.04867 7.73532 2.40684 7.73532 2.84867C7.73532 3.2905 7.37715 3.64867 6.93532 3.64867H4.07477C3.48942 3.64867 3.09839 3.64929 2.79768 3.67385C2.50627 3.69766 2.37089 3.73989 2.28398 3.78418C2.05025 3.90327 1.86018 4.09339 1.74088 4.32754C1.69657 4.41451 1.65435 4.54983 1.63055 4.84108C1.60599 5.14167 1.60537 5.53259 1.60537 6.11797V15.9258C1.60537 16.5112 1.60599 16.9021 1.63055 17.2027C1.65435 17.4939 1.69657 17.6292 1.74088 17.7162C1.86017 17.9503 2.05022 18.1404 2.28398 18.2595C2.37091 18.3038 2.50629 18.3461 2.7977 18.3699C3.0984 18.3944 3.48943 18.3951 4.07477 18.3951H13.8824C14.4677 18.3951 14.8585 18.3944 15.159 18.3699C15.4501 18.3461 15.5853 18.3039 15.6723 18.2595C15.9066 18.1402 16.0971 17.9498 16.2161 17.7162C16.2604 17.6293 16.3025 17.4941 16.3263 17.2028C16.3508 16.9022 16.3514 16.5113 16.3514 15.9258V13.0652C16.3514 12.6233 16.7096 12.2652 17.1514 12.2652C17.5932 12.2652 17.9514 12.6233 17.9514 13.0652V15.9608C17.9514 16.5043 17.9514 16.96 17.921 17.3328C17.8892 17.723 17.8201 18.0924 17.6417 18.4426C17.3689 18.978 16.9334 19.4127 16.3987 19.6851C16.0487 19.8635 15.6795 19.9327 15.2894 19.9646C14.9158 19.9951 14.4591 19.9951 13.9142 19.9951H4.04303C3.49807 19.9951 3.04113 19.9951 2.66741 19.9646C2.27717 19.9327 1.90773 19.8636 1.55758 19.6851C1.02241 19.4125 0.587766 18.9774 0.315264 18.4426C0.136877 18.0925 0.0677464 17.7232 0.0358665 17.333C0.00534997 16.9595 0.00535987 16.5028 0.00537155 15.9581V6.08573C0.00535987 5.54099 0.00534997 5.0843 0.0358664 4.71079C0.0677461 4.3206 0.136876 3.95129 0.315264 3.60117C0.587748 3.06638 1.02238 2.63128 1.55758 2.35858C1.90774 2.18016 2.2772 2.11104 2.66743 2.07917C3.04103 2.04865 3.49781 2.04866 4.04255 2.04867Z" fill="black"/>
</svg>
