<svg width="8" height="14" viewBox="0 0 8 14" fill="currentColor" xmlns="http://www.w3.org/2000/svg">
<path d="M3 1.94444C3 2.74219 2.32843 3.38889 1.5 3.38889C0.671573 3.38889 0 2.74219 0 1.94444C0 1.1467 0.671573 0.5 1.5 0.5C2.32843 0.5 3 1.1467 3 1.94444Z" fill="black"/>
<path d="M3 12.0556C3 12.8533 2.32843 13.5 1.5 13.5C0.671573 13.5 0 12.8533 0 12.0556C0 11.2578 0.671573 10.6111 1.5 10.6111C2.32843 10.6111 3 11.2578 3 12.0556Z" fill="black"/>
<path d="M3 7C3 7.79774 2.32843 8.44444 1.5 8.44444C0.671573 8.44444 0 7.79774 0 7C0 6.20226 0.671573 5.55556 1.5 5.55556C2.32843 5.55556 3 6.20226 3 7Z" fill="black"/>
<path d="M8 1.94444C8 2.74219 7.32843 3.38889 6.5 3.38889C5.67157 3.38889 5 2.74219 5 1.94444C5 1.1467 5.67157 0.5 6.5 0.5C7.32843 0.5 8 1.1467 8 1.94444Z" fill="black"/>
<path d="M8 12.0556C8 12.8533 7.32843 13.5 6.5 13.5C5.67157 13.5 5 12.8533 5 12.0556C5 11.2578 5.67157 10.6111 6.5 10.6111C7.32843 10.6111 8 11.2578 8 12.0556Z" fill="black"/>
<path d="M8 7C8 7.79774 7.32843 8.44444 6.5 8.44444C5.67157 8.44444 5 7.79774 5 7C5 6.20226 5.67157 5.55556 6.5 5.55556C7.32843 5.55556 8 6.20226 8 7Z" fill="black"/>
</svg>
